<?xml version="1.0" encoding="UTF-8" standalone="no"?>
<!DOCTYPE svg PUBLIC "-//W3C//DTD SVG 1.1//EN"
 "http://www.w3.org/Graphics/SVG/1.1/DTD/svg11.dtd">
<!-- Generated by graphviz version 2.43.0 (0)
 -->
<!-- Title: %3 Pages: 1 -->
<svg width="617pt" height="493pt"
 viewBox="0.00 0.00 616.63 492.70" xmlns="http://www.w3.org/2000/svg" xmlns:xlink="http://www.w3.org/1999/xlink">
<g id="graph0" class="graph" transform="scale(1 1) rotate(0) translate(4 488.7)">
<title>%3</title>
<polygon fill="white" stroke="transparent" points="-4,4 -4,-488.7 612.63,-488.7 612.63,4 -4,4"/>
<!-- HilbertSpace -->
<g id="node1" class="node">
<title>HilbertSpace</title>
<ellipse fill="lightblue" stroke="black" cx="319.24" cy="-457.83" rx="77.56" ry="26.74"/>
<text text-anchor="middle" x="319.24" y="-461.63" font-family="Times,serif" font-size="14.00">HilbertSpace</text>
<text text-anchor="middle" x="319.24" y="-446.63" font-family="Times,serif" font-size="14.00">(foundation)</text>
</g>
<!-- LinearOperator -->
<g id="node2" class="node">
<title>LinearOperator</title>
<ellipse fill="lightgreen" stroke="black" cx="378.24" cy="-368.09" rx="89.61" ry="26.74"/>
<text text-anchor="middle" x="378.24" y="-371.89" font-family="Times,serif" font-size="14.00">LinearOperator</text>
<text text-anchor="middle" x="378.24" y="-356.89" font-family="Times,serif" font-size="14.00">(workhorse)</text>
</g>
<!-- HilbertSpace&#45;&gt;LinearOperator -->
<g id="edge1" class="edge">
<title>HilbertSpace&#45;&gt;LinearOperator</title>
<path fill="none" stroke="black" d="M336.3,-431.45C342.24,-422.62 349.01,-412.56 355.34,-403.14"/>
<polygon fill="black" stroke="black" points="358.33,-404.97 361.01,-394.72 352.52,-401.06 358.33,-404.97"/>
</g>
<!-- GaussianMeasure -->
<g id="node3" class="node">
<title>GaussianMeasure</title>
<ellipse fill="lightyellow" stroke="black" cx="260.24" cy="-278.35" rx="101.65" ry="26.74"/>
<text text-anchor="middle" x="260.24" y="-282.15" font-family="Times,serif" font-size="14.00">GaussianMeasure</text>
<text text-anchor="middle" x="260.24" y="-267.15" font-family="Times,serif" font-size="14.00">(probability)</text>
</g>
<!-- HilbertSpace&#45;&gt;GaussianMeasure -->
<g id="edge2" class="edge">
<title>HilbertSpace&#45;&gt;GaussianMeasure</title>
<path fill="none" stroke="black" d="M299.58,-431.63C292.11,-420.87 284.21,-407.85 279.24,-394.96 269.39,-369.45 264.65,-338.86 262.36,-315.55"/>
<polygon fill="black" stroke="black" points="265.83,-315.06 261.47,-305.4 258.86,-315.67 265.83,-315.06"/>
</g>
<!-- Geometry -->
<g id="node7" class="node">
<title>Geometry</title>
<ellipse fill="wheat" stroke="black" cx="103.24" cy="-188.61" rx="103.48" ry="26.74"/>
<text text-anchor="middle" x="103.24" y="-192.41" font-family="Times,serif" font-size="14.00">Geometric Spaces</text>
<text text-anchor="middle" x="103.24" y="-177.41" font-family="Times,serif" font-size="14.00">(Circle, Sphere)</text>
</g>
<!-- HilbertSpace&#45;&gt;Geometry -->
<g id="edge8" class="edge">
<title>HilbertSpace&#45;&gt;Geometry</title>
<path fill="none" stroke="black" d="M271.45,-436.33C222.49,-412.55 148.66,-368.34 113.24,-305.22 99.76,-281.19 97.82,-249.84 98.95,-225.85"/>
<polygon fill="black" stroke="black" points="102.45,-225.94 99.62,-215.73 95.47,-225.48 102.45,-225.94"/>
</g>
<!-- Interval -->
<g id="node8" class="node">
<title>Interval</title>
<ellipse fill="lightcyan" stroke="black" cx="379.24" cy="-188.61" rx="117.26" ry="26.74"/>
<text text-anchor="middle" x="379.24" y="-192.41" font-family="Times,serif" font-size="14.00">Interval Spaces</text>
<text text-anchor="middle" x="379.24" y="-177.41" font-family="Times,serif" font-size="14.00">(1D Functions, FEM)</text>
</g>
<!-- HilbertSpace&#45;&gt;Interval -->
<g id="edge11" class="edge">
<title>HilbertSpace&#45;&gt;Interval</title>
<path fill="none" stroke="black" d="M390.81,-447.2C422.84,-438.93 457.73,-423.55 477.24,-394.96 515.89,-338.32 457.07,-264.08 415.19,-222.15"/>
<polygon fill="black" stroke="black" points="417.45,-219.46 407.85,-214.96 412.54,-224.46 417.45,-219.46"/>
</g>
<!-- LinearOperator&#45;&gt;GaussianMeasure -->
<g id="edge3" class="edge">
<title>LinearOperator&#45;&gt;GaussianMeasure</title>
<path fill="none" stroke="black" d="M345.68,-342.88C332,-332.71 315.92,-320.75 301.42,-309.97"/>
<polygon fill="black" stroke="black" points="303.21,-306.94 293.1,-303.78 299.03,-312.56 303.21,-306.94"/>
</g>
<!-- ForwardProblem -->
<g id="node4" class="node">
<title>ForwardProblem</title>
<ellipse fill="lightcoral" stroke="black" cx="379.24" cy="-98.87" rx="96.75" ry="26.74"/>
<text text-anchor="middle" x="379.24" y="-102.67" font-family="Times,serif" font-size="14.00">ForwardProblem</text>
<text text-anchor="middle" x="379.24" y="-87.67" font-family="Times,serif" font-size="14.00">(physics)</text>
</g>
<!-- LinearOperator&#45;&gt;ForwardProblem -->
<g id="edge4" class="edge">
<title>LinearOperator&#45;&gt;ForwardProblem</title>
<path fill="none" stroke="black" d="M408.49,-342.68C439.57,-315.45 486.06,-268.24 505.24,-215.48 513.4,-193.03 517.87,-182.01 505.24,-161.74 494.16,-143.96 476.33,-131.15 457.51,-121.97"/>
<polygon fill="black" stroke="black" points="458.78,-118.7 448.22,-117.75 455.88,-125.07 458.78,-118.7"/>
</g>
<!-- LinearOperator&#45;&gt;Geometry -->
<g id="edge9" class="edge">
<title>LinearOperator&#45;&gt;Geometry</title>
<path fill="none" stroke="black" d="M290.46,-362.06C243.61,-355.15 187.82,-339.61 149.24,-305.22 126.28,-284.76 114.63,-251.29 108.81,-225.62"/>
<polygon fill="black" stroke="black" points="112.17,-224.59 106.72,-215.51 105.32,-226.01 112.17,-224.59"/>
</g>
<!-- LinearOperator&#45;&gt;Interval -->
<g id="edge12" class="edge">
<title>LinearOperator&#45;&gt;Interval</title>
<path fill="none" stroke="black" d="M378.39,-340.9C378.56,-310.41 378.84,-259.85 379.03,-225.66"/>
<polygon fill="black" stroke="black" points="382.53,-225.64 379.09,-215.62 375.53,-225.6 382.53,-225.64"/>
</g>
<!-- GaussianMeasure&#45;&gt;ForwardProblem -->
<g id="edge5" class="edge">
<title>GaussianMeasure&#45;&gt;ForwardProblem</title>
<path fill="none" stroke="black" d="M250.56,-251.35C243.04,-226.42 236.44,-188.71 253.24,-161.74 264.31,-143.96 282.15,-131.15 300.96,-121.97"/>
<polygon fill="black" stroke="black" points="302.59,-125.07 310.25,-117.75 299.7,-118.7 302.59,-125.07"/>
</g>
<!-- GaussianMeasure&#45;&gt;Geometry -->
<g id="edge10" class="edge">
<title>GaussianMeasure&#45;&gt;Geometry</title>
<path fill="none" stroke="black" d="M218.16,-253.84C198.54,-242.87 175.02,-229.73 154.38,-218.19"/>
<polygon fill="black" stroke="black" points="155.86,-215.01 145.43,-213.19 152.45,-221.12 155.86,-215.01"/>
</g>
<!-- GaussianMeasure&#45;&gt;Interval -->
<g id="edge13" class="edge">
<title>GaussianMeasure&#45;&gt;Interval</title>
<path fill="none" stroke="black" d="M293.39,-252.91C306.95,-242.91 322.81,-231.21 337.18,-220.62"/>
<polygon fill="black" stroke="black" points="339.47,-223.28 345.44,-214.53 335.31,-217.65 339.47,-223.28"/>
</g>
<!-- Bayesian -->
<g id="node5" class="node">
<title>Bayesian</title>
<ellipse fill="lightpink" stroke="black" cx="265.24" cy="-18" rx="96.38" ry="18"/>
<text text-anchor="middle" x="265.24" y="-14.3" font-family="Times,serif" font-size="14.00">Bayesian Methods</text>
</g>
<!-- ForwardProblem&#45;&gt;Bayesian -->
<g id="edge6" class="edge">
<title>ForwardProblem&#45;&gt;Bayesian</title>
<path fill="none" stroke="black" d="M344.41,-73.78C329.42,-63.4 311.99,-51.35 297.31,-41.19"/>
<polygon fill="black" stroke="black" points="299.24,-38.27 289.03,-35.46 295.26,-44.03 299.24,-38.27"/>
</g>
<!-- Optimization -->
<g id="node6" class="node">
<title>Optimization</title>
<ellipse fill="lightgray" stroke="black" cx="494.24" cy="-18" rx="114.28" ry="18"/>
<text text-anchor="middle" x="494.24" y="-14.3" font-family="Times,serif" font-size="14.00">Optimization Methods</text>
</g>
<!-- ForwardProblem&#45;&gt;Optimization -->
<g id="edge7" class="edge">
<title>ForwardProblem&#45;&gt;Optimization</title>
<path fill="none" stroke="black" d="M414.37,-73.78C429.39,-63.48 446.82,-51.52 461.56,-41.41"/>
<polygon fill="black" stroke="black" points="463.62,-44.24 469.88,-35.7 459.66,-38.47 463.62,-44.24"/>
</g>
<!-- Interval&#45;&gt;ForwardProblem -->
<g id="edge14" class="edge">
<title>Interval&#45;&gt;ForwardProblem</title>
<path fill="none" stroke="black" d="M379.24,-161.29C379.24,-153.32 379.24,-144.43 379.24,-135.94"/>
<polygon fill="black" stroke="black" points="382.74,-135.87 379.24,-125.87 375.74,-135.87 382.74,-135.87"/>
</g>
</g>
</svg>
