<?xml version="1.0" encoding="UTF-8" standalone="no"?>
<!DOCTYPE svg PUBLIC "-//W3C//DTD SVG 1.1//EN"
 "http://www.w3.org/Graphics/SVG/1.1/DTD/svg11.dtd">
<!-- Generated by graphviz version 2.43.0 (0)
 -->
<!-- Title: %3 Pages: 1 -->
<svg width="1152pt" height="514pt"
 viewBox="0.00 0.00 1152.00 514.05" xmlns="http://www.w3.org/2000/svg" xmlns:xlink="http://www.w3.org/1999/xlink">
<g id="graph0" class="graph" transform="scale(1.35 1.35) rotate(0) translate(4 689)">
<title>%3</title>
<polygon fill="white" stroke="transparent" points="-4,4 -4,-689 1549.02,-689 1549.02,4 -4,4"/>
<g id="clust1" class="cluster">
<title>cluster_0</title>
<polygon fill="none" stroke="blue" stroke-dasharray="5,2" points="307.02,-600 307.02,-677 631.02,-677 631.02,-600 307.02,-600"/>
<text text-anchor="middle" x="469.02" y="-661.8" font-family="Times,serif" font-size="14.00">FUNDAMENTAL LEVEL</text>
</g>
<g id="clust2" class="cluster">
<title>cluster_1</title>
<polygon fill="none" stroke="orange" stroke-dasharray="5,2" points="55.02,-345.5 55.02,-591 419.02,-591 419.02,-345.5 55.02,-345.5"/>
<text text-anchor="middle" x="237.02" y="-575.8" font-family="Times,serif" font-size="14.00">CORE LEVEL</text>
</g>
<g id="clust3" class="cluster">
<title>cluster_2</title>
<polygon fill="none" stroke="green" stroke-dasharray="5,2" points="427.02,-252 427.02,-421.5 919.02,-421.5 919.02,-252 427.02,-252"/>
<text text-anchor="middle" x="673.02" y="-406.3" font-family="Times,serif" font-size="14.00">COMPOSITION LEVEL</text>
</g>
<g id="clust4" class="cluster">
<title>cluster_3</title>
<polygon fill="none" stroke="red" stroke-dasharray="5,2" points="927.02,-170.5 927.02,-328 1191.02,-328 1191.02,-170.5 927.02,-170.5"/>
<text text-anchor="middle" x="1059.02" y="-312.8" font-family="Times,serif" font-size="14.00">PROBLEM FORMULATION LEVEL</text>
</g>
<g id="clust5" class="cluster">
<title>cluster_4</title>
<polygon fill="none" stroke="purple" stroke-dasharray="5,2" points="726.02,-8 726.02,-155 1182.02,-155 1182.02,-8 726.02,-8"/>
<text text-anchor="middle" x="954.02" y="-139.8" font-family="Times,serif" font-size="14.00">ALGORITHM LEVEL</text>
</g>
<g id="clust6" class="cluster">
<title>cluster_5</title>
<polygon fill="none" stroke="brown" stroke-dasharray="5,2" points="75.02,-163 75.02,-329 248.02,-329 248.02,-163 75.02,-163"/>
<text text-anchor="middle" x="161.52" y="-313.8" font-family="Times,serif" font-size="14.00">GEOMETRIC SPACES</text>
</g>
<g id="clust7" class="cluster">
<title>cluster_6</title>
<polygon fill="none" stroke="#0066cc" stroke-dasharray="5,2" points="957.02,-337 957.02,-592 1537.02,-592 1537.02,-337 957.02,-337"/>
<text text-anchor="middle" x="1247.02" y="-576.8" font-family="Times,serif" font-size="14.00">INTERVAL IMPLEMENTATIONS</text>
</g>
<!-- random_matrix -->
<g id="node1" class="node">
<title>random_matrix</title>
<path fill="#e8f4fd" stroke="#1f77b4" d="M610.52,-646C610.52,-646 455.52,-646 455.52,-646 449.52,-646 443.52,-640 443.52,-634 443.52,-634 443.52,-620 443.52,-620 443.52,-614 449.52,-608 455.52,-608 455.52,-608 610.52,-608 610.52,-608 616.52,-608 622.52,-614 622.52,-620 622.52,-620 622.52,-634 622.52,-634 622.52,-640 616.52,-646 610.52,-646"/>
<text text-anchor="middle" x="533.02" y="-630.8" font-family="Times,serif" font-size="14.00">random_matrix.py</text>
<text text-anchor="middle" x="533.02" y="-615.8" font-family="Times,serif" font-size="14.00">(algorithmic functions)</text>
</g>
<!-- LinearOperator -->
<g id="node5" class="node">
<title>LinearOperator</title>
<path fill="#fff2cc" stroke="#ff7f0e" d="M398.52,-478.5C398.52,-478.5 295.52,-478.5 295.52,-478.5 289.52,-478.5 283.52,-472.5 283.52,-466.5 283.52,-466.5 283.52,-454.5 283.52,-454.5 283.52,-448.5 289.52,-442.5 295.52,-442.5 295.52,-442.5 398.52,-442.5 398.52,-442.5 404.52,-442.5 410.52,-448.5 410.52,-454.5 410.52,-454.5 410.52,-466.5 410.52,-466.5 410.52,-472.5 404.52,-478.5 398.52,-478.5"/>
<text text-anchor="middle" x="347.02" y="-456.8" font-family="Times,serif" font-size="14.00">LinearOperator</text>
</g>
<!-- random_matrix&#45;&gt;LinearOperator -->
<g id="edge5" class="edge">
<title>random_matrix&#45;&gt;LinearOperator</title>
<path fill="none" stroke="black" d="M513.64,-607.9C491.29,-587.15 453.36,-552.22 420.02,-523 405.58,-510.34 389.24,-496.53 375.69,-485.21"/>
<polygon fill="black" stroke="black" points="377.58,-482.23 367.66,-478.52 373.1,-487.61 377.58,-482.23"/>
</g>
<!-- HilbertSpace -->
<g id="node2" class="node">
<title>HilbertSpace</title>
<path fill="#e8f4fd" stroke="#1f77b4" d="M413.02,-646C413.02,-646 327.02,-646 327.02,-646 321.02,-646 315.02,-640 315.02,-634 315.02,-634 315.02,-620 315.02,-620 315.02,-614 321.02,-608 327.02,-608 327.02,-608 413.02,-608 413.02,-608 419.02,-608 425.02,-614 425.02,-620 425.02,-620 425.02,-634 425.02,-634 425.02,-640 419.02,-646 413.02,-646"/>
<text text-anchor="middle" x="370.02" y="-630.8" font-family="Times,serif" font-size="14.00">HilbertSpace</text>
<text text-anchor="middle" x="370.02" y="-615.8" font-family="Times,serif" font-size="14.00">(ABC)</text>
</g>
<!-- LinearForm -->
<g id="node3" class="node">
<title>LinearForm</title>
<path fill="#fff2cc" stroke="#ff7f0e" d="M151.02,-560C151.02,-560 75.02,-560 75.02,-560 69.02,-560 63.02,-554 63.02,-548 63.02,-548 63.02,-536 63.02,-536 63.02,-530 69.02,-524 75.02,-524 75.02,-524 151.02,-524 151.02,-524 157.02,-524 163.02,-530 163.02,-536 163.02,-536 163.02,-548 163.02,-548 163.02,-554 157.02,-560 151.02,-560"/>
<text text-anchor="middle" x="113.02" y="-538.3" font-family="Times,serif" font-size="14.00">LinearForm</text>
</g>
<!-- HilbertSpace&#45;&gt;LinearForm -->
<g id="edge1" class="edge">
<title>HilbertSpace&#45;&gt;LinearForm</title>
<path fill="none" stroke="black" d="M314.83,-624.17C273.8,-621.03 217.33,-612.86 172.02,-592 159.05,-586.02 146.58,-576.45 136.48,-567.34"/>
<polygon fill="black" stroke="black" points="138.6,-564.53 128.92,-560.21 133.8,-569.62 138.6,-564.53"/>
</g>
<!-- Operator -->
<g id="node4" class="node">
<title>Operator</title>
<path fill="#fff2cc" stroke="#ff7f0e" d="M398.52,-560C398.52,-560 341.52,-560 341.52,-560 335.52,-560 329.52,-554 329.52,-548 329.52,-548 329.52,-536 329.52,-536 329.52,-530 335.52,-524 341.52,-524 341.52,-524 398.52,-524 398.52,-524 404.52,-524 410.52,-530 410.52,-536 410.52,-536 410.52,-548 410.52,-548 410.52,-554 404.52,-560 398.52,-560"/>
<text text-anchor="middle" x="370.02" y="-538.3" font-family="Times,serif" font-size="14.00">Operator</text>
</g>
<!-- HilbertSpace&#45;&gt;Operator -->
<g id="edge2" class="edge">
<title>HilbertSpace&#45;&gt;Operator</title>
<path fill="none" stroke="black" d="M370.02,-607.99C370.02,-597 370.02,-582.74 370.02,-570.37"/>
<polygon fill="black" stroke="black" points="373.52,-570.12 370.02,-560.12 366.52,-570.12 373.52,-570.12"/>
</g>
<!-- EuclideanSpace -->
<g id="node6" class="node">
<title>EuclideanSpace</title>
<path fill="#fff2cc" stroke="#ff7f0e" d="M299.02,-560C299.02,-560 193.02,-560 193.02,-560 187.02,-560 181.02,-554 181.02,-548 181.02,-548 181.02,-536 181.02,-536 181.02,-530 187.02,-524 193.02,-524 193.02,-524 299.02,-524 299.02,-524 305.02,-524 311.02,-530 311.02,-536 311.02,-536 311.02,-548 311.02,-548 311.02,-554 305.02,-560 299.02,-560"/>
<text text-anchor="middle" x="246.02" y="-538.3" font-family="Times,serif" font-size="14.00">EuclideanSpace</text>
</g>
<!-- HilbertSpace&#45;&gt;EuclideanSpace -->
<g id="edge3" class="edge">
<title>HilbertSpace&#45;&gt;EuclideanSpace</title>
<path fill="none" stroke="black" d="M343.12,-607.99C324.63,-595.61 299.93,-579.08 280.07,-565.79"/>
<polygon fill="black" stroke="black" points="281.86,-562.78 271.61,-560.12 277.97,-568.59 281.86,-562.78"/>
</g>
<!-- HilbertSpaceDirectSum -->
<g id="node8" class="node">
<title>HilbertSpaceDirectSum</title>
<path fill="#e8f5e8" stroke="#2ca02c" d="M736.52,-389.5C736.52,-389.5 573.52,-389.5 573.52,-389.5 567.52,-389.5 561.52,-383.5 561.52,-377.5 561.52,-377.5 561.52,-365.5 561.52,-365.5 561.52,-359.5 567.52,-353.5 573.52,-353.5 573.52,-353.5 736.52,-353.5 736.52,-353.5 742.52,-353.5 748.52,-359.5 748.52,-365.5 748.52,-365.5 748.52,-377.5 748.52,-377.5 748.52,-383.5 742.52,-389.5 736.52,-389.5"/>
<text text-anchor="middle" x="655.02" y="-367.8" font-family="Times,serif" font-size="14.00">HilbertSpaceDirectSum</text>
</g>
<!-- HilbertSpace&#45;&gt;HilbertSpaceDirectSum -->
<g id="edge7" class="edge">
<title>HilbertSpace&#45;&gt;HilbertSpaceDirectSum</title>
<path fill="none" stroke="black" d="M405.58,-607.99C412.05,-603.46 418.25,-598.12 423.02,-592 468.56,-533.58 419.62,-482 476.02,-434 502.09,-411.81 519.36,-431.73 552.02,-421.5 573.95,-414.63 597.15,-403.93 615.98,-394.27"/>
<polygon fill="black" stroke="black" points="617.6,-397.37 624.84,-389.64 614.36,-391.17 617.6,-397.37"/>
</g>
<!-- GaussianMeasure -->
<g id="node10" class="node">
<title>GaussianMeasure</title>
<path fill="#e8f5e8" stroke="#2ca02c" d="M899.02,-389.5C899.02,-389.5 779.02,-389.5 779.02,-389.5 773.02,-389.5 767.02,-383.5 767.02,-377.5 767.02,-377.5 767.02,-365.5 767.02,-365.5 767.02,-359.5 773.02,-353.5 779.02,-353.5 779.02,-353.5 899.02,-353.5 899.02,-353.5 905.02,-353.5 911.02,-359.5 911.02,-365.5 911.02,-365.5 911.02,-377.5 911.02,-377.5 911.02,-383.5 905.02,-389.5 899.02,-389.5"/>
<text text-anchor="middle" x="839.02" y="-367.8" font-family="Times,serif" font-size="14.00">GaussianMeasure</text>
</g>
<!-- HilbertSpace&#45;&gt;GaussianMeasure -->
<g id="edge10" class="edge">
<title>HilbertSpace&#45;&gt;GaussianMeasure</title>
<path fill="none" stroke="black" d="M413.26,-607.99C424.66,-603.02 436.89,-597.47 448.02,-592 589.13,-522.62 621.84,-500.1 758.02,-421.5 772.74,-413.01 788.77,-403.39 802.67,-394.93"/>
<polygon fill="black" stroke="black" points="804.74,-397.77 811.45,-389.57 801.09,-391.79 804.74,-397.77"/>
</g>
<!-- AbstractInvariantLebesgueSpace -->
<g id="node17" class="node">
<title>AbstractInvariantLebesgueSpace</title>
<path fill="#ffe0b3" stroke="#8c564b" d="M220.52,-298C220.52,-298 101.52,-298 101.52,-298 95.52,-298 89.52,-292 89.52,-286 89.52,-286 89.52,-272 89.52,-272 89.52,-266 95.52,-260 101.52,-260 101.52,-260 220.52,-260 220.52,-260 226.52,-260 232.52,-266 232.52,-272 232.52,-272 232.52,-286 232.52,-286 232.52,-292 226.52,-298 220.52,-298"/>
<text text-anchor="middle" x="161.02" y="-282.8" font-family="Times,serif" font-size="14.00">AbstractInvariant</text>
<text text-anchor="middle" x="161.02" y="-267.8" font-family="Times,serif" font-size="14.00">LebesgueSpace</text>
</g>
<!-- HilbertSpace&#45;&gt;AbstractInvariantLebesgueSpace -->
<g id="edge23" class="edge">
<title>HilbertSpace&#45;&gt;AbstractInvariantLebesgueSpace</title>
<path fill="none" stroke="black" d="M314.7,-624.05C228.03,-620.43 68.29,-611.21 51.02,-592 -24.75,-507.72 -7.86,-433.83 51.02,-337 60.09,-322.1 74.44,-310.92 89.83,-302.6"/>
<polygon fill="black" stroke="black" points="91.6,-305.62 98.98,-298.02 88.47,-299.36 91.6,-305.62"/>
</g>
<!-- IntervalDomain -->
<g id="node19" class="node">
<title>IntervalDomain</title>
<path fill="#e6f3ff" stroke="#0066cc" d="M1081.02,-560C1081.02,-560 977.02,-560 977.02,-560 971.02,-560 965.02,-554 965.02,-548 965.02,-548 965.02,-536 965.02,-536 965.02,-530 971.02,-524 977.02,-524 977.02,-524 1081.02,-524 1081.02,-524 1087.02,-524 1093.02,-530 1093.02,-536 1093.02,-536 1093.02,-548 1093.02,-548 1093.02,-554 1087.02,-560 1081.02,-560"/>
<text text-anchor="middle" x="1029.02" y="-538.3" font-family="Times,serif" font-size="14.00">IntervalDomain</text>
</g>
<!-- HilbertSpace&#45;&gt;IntervalDomain -->
<g id="edge29" class="edge">
<title>HilbertSpace&#45;&gt;IntervalDomain</title>
<path fill="none" stroke="black" d="M410.01,-607.95C418.15,-604.86 426.76,-602.01 435.02,-600 447.52,-596.97 798.26,-564.32 954.8,-549.85"/>
<polygon fill="black" stroke="black" points="955.19,-553.32 964.83,-548.92 954.55,-546.35 955.19,-553.32"/>
</g>
<!-- L2Space -->
<g id="node22" class="node">
<title>L2Space</title>
<path fill="#e6f3ff" stroke="#0066cc" d="M1182.52,-561C1182.52,-561 1123.52,-561 1123.52,-561 1117.52,-561 1111.52,-555 1111.52,-549 1111.52,-549 1111.52,-535 1111.52,-535 1111.52,-529 1117.52,-523 1123.52,-523 1123.52,-523 1182.52,-523 1182.52,-523 1188.52,-523 1194.52,-529 1194.52,-535 1194.52,-535 1194.52,-549 1194.52,-549 1194.52,-555 1188.52,-561 1182.52,-561"/>
<text text-anchor="middle" x="1153.02" y="-545.8" font-family="Times,serif" font-size="14.00">L2Space</text>
<text text-anchor="middle" x="1153.02" y="-530.8" font-family="Times,serif" font-size="14.00">(interval)</text>
</g>
<!-- HilbertSpace&#45;&gt;L2Space -->
<g id="edge27" class="edge">
<title>HilbertSpace&#45;&gt;L2Space</title>
<path fill="none" stroke="black" d="M408.5,-607.92C417.05,-604.67 426.2,-601.75 435.02,-600 471.37,-592.77 1067.73,-606.04 1102.02,-592 1114.1,-587.06 1124.93,-577.78 1133.48,-568.61"/>
<polygon fill="black" stroke="black" points="1136.16,-570.87 1140.1,-561.03 1130.88,-566.26 1136.16,-570.87"/>
</g>
<!-- Operator&#45;&gt;LinearOperator -->
<g id="edge4" class="edge">
<title>Operator&#45;&gt;LinearOperator</title>
<path fill="none" stroke="black" d="M365.03,-523.75C362.05,-513.44 358.19,-500.11 354.82,-488.43"/>
<polygon fill="black" stroke="black" points="358.15,-487.35 352.01,-478.72 351.42,-489.3 358.15,-487.35"/>
</g>
<!-- DiagonalLinearOperator -->
<g id="node7" class="node">
<title>DiagonalLinearOperator</title>
<path fill="#fff2cc" stroke="#ff7f0e" d="M367.02,-389.5C367.02,-389.5 201.02,-389.5 201.02,-389.5 195.02,-389.5 189.02,-383.5 189.02,-377.5 189.02,-377.5 189.02,-365.5 189.02,-365.5 189.02,-359.5 195.02,-353.5 201.02,-353.5 201.02,-353.5 367.02,-353.5 367.02,-353.5 373.02,-353.5 379.02,-359.5 379.02,-365.5 379.02,-365.5 379.02,-377.5 379.02,-377.5 379.02,-383.5 373.02,-389.5 367.02,-389.5"/>
<text text-anchor="middle" x="284.02" y="-367.8" font-family="Times,serif" font-size="14.00">DiagonalLinearOperator</text>
</g>
<!-- LinearOperator&#45;&gt;DiagonalLinearOperator -->
<g id="edge6" class="edge">
<title>LinearOperator&#45;&gt;DiagonalLinearOperator</title>
<path fill="none" stroke="black" d="M334.58,-442.31C325.43,-429.68 312.85,-412.31 302.53,-398.05"/>
<polygon fill="black" stroke="black" points="305.15,-395.7 296.45,-389.65 299.48,-399.8 305.15,-395.7"/>
</g>
<!-- BlockLinearOperator -->
<g id="node9" class="node">
<title>BlockLinearOperator</title>
<path fill="#e8f5e8" stroke="#2ca02c" d="M658.02,-298C658.02,-298 516.02,-298 516.02,-298 510.02,-298 504.02,-292 504.02,-286 504.02,-286 504.02,-272 504.02,-272 504.02,-266 510.02,-260 516.02,-260 516.02,-260 658.02,-260 658.02,-260 664.02,-260 670.02,-266 670.02,-272 670.02,-272 670.02,-286 670.02,-286 670.02,-292 664.02,-298 658.02,-298"/>
<text text-anchor="middle" x="587.02" y="-282.8" font-family="Times,serif" font-size="14.00">BlockLinearOperator</text>
<text text-anchor="middle" x="587.02" y="-267.8" font-family="Times,serif" font-size="14.00">family</text>
</g>
<!-- LinearOperator&#45;&gt;BlockLinearOperator -->
<g id="edge8" class="edge">
<title>LinearOperator&#45;&gt;BlockLinearOperator</title>
<path fill="none" stroke="black" d="M368.68,-442.39C375.46,-436.3 382.59,-429.07 388.02,-421.5 412.05,-388.06 395.73,-364.89 426.02,-337 445.09,-319.45 469.9,-307.23 494.31,-298.76"/>
<polygon fill="black" stroke="black" points="495.59,-302.03 504,-295.58 493.41,-295.38 495.59,-302.03"/>
</g>
<!-- LinearOperator&#45;&gt;GaussianMeasure -->
<g id="edge11" class="edge">
<title>LinearOperator&#45;&gt;GaussianMeasure</title>
<path fill="none" stroke="black" d="M410.69,-444.94C431.42,-440.73 454.61,-436.58 476.02,-434 538.3,-426.51 697.99,-439.69 758.02,-421.5 776.13,-416.01 794.33,-405.56 808.88,-395.7"/>
<polygon fill="black" stroke="black" points="811.26,-398.31 817.43,-389.7 807.24,-392.58 811.26,-398.31"/>
</g>
<!-- LinearSolver -->
<g id="node11" class="node">
<title>LinearSolver</title>
<path fill="#e8f5e8" stroke="#2ca02c" d="M531.02,-390.5C531.02,-390.5 447.02,-390.5 447.02,-390.5 441.02,-390.5 435.02,-384.5 435.02,-378.5 435.02,-378.5 435.02,-364.5 435.02,-364.5 435.02,-358.5 441.02,-352.5 447.02,-352.5 447.02,-352.5 531.02,-352.5 531.02,-352.5 537.02,-352.5 543.02,-358.5 543.02,-364.5 543.02,-364.5 543.02,-378.5 543.02,-378.5 543.02,-384.5 537.02,-390.5 531.02,-390.5"/>
<text text-anchor="middle" x="489.02" y="-375.3" font-family="Times,serif" font-size="14.00">LinearSolver</text>
<text text-anchor="middle" x="489.02" y="-360.3" font-family="Times,serif" font-size="14.00">family</text>
</g>
<!-- LinearOperator&#45;&gt;LinearSolver -->
<g id="edge12" class="edge">
<title>LinearOperator&#45;&gt;LinearSolver</title>
<path fill="none" stroke="black" d="M384.45,-442.4C396.97,-436.26 410.83,-428.99 423.02,-421.5 435.14,-414.06 447.81,-404.99 458.78,-396.68"/>
<polygon fill="black" stroke="black" points="461.01,-399.39 466.8,-390.52 456.74,-393.84 461.01,-399.39"/>
</g>
<!-- ForwardProblem -->
<g id="node12" class="node">
<title>ForwardProblem</title>
<path fill="#ffe8e8" stroke="#d62728" d="M1060.52,-297C1060.52,-297 947.52,-297 947.52,-297 941.52,-297 935.52,-291 935.52,-285 935.52,-285 935.52,-273 935.52,-273 935.52,-267 941.52,-261 947.52,-261 947.52,-261 1060.52,-261 1060.52,-261 1066.52,-261 1072.52,-267 1072.52,-273 1072.52,-273 1072.52,-285 1072.52,-285 1072.52,-291 1066.52,-297 1060.52,-297"/>
<text text-anchor="middle" x="1004.02" y="-275.3" font-family="Times,serif" font-size="14.00">ForwardProblem</text>
</g>
<!-- LinearOperator&#45;&gt;ForwardProblem -->
<g id="edge13" class="edge">
<title>LinearOperator&#45;&gt;ForwardProblem</title>
<path fill="none" stroke="black" d="M410.59,-459.19C551.92,-457.96 882.94,-451.83 923.02,-421.5 954.8,-397.45 932.69,-371.27 953.02,-337 959.98,-325.29 969.54,-313.81 978.52,-304.26"/>
<polygon fill="black" stroke="black" points="981.07,-306.65 985.52,-297.04 976.05,-301.78 981.07,-306.65"/>
</g>
<!-- LinearOperator&#45;&gt;AbstractInvariantLebesgueSpace -->
<g id="edge24" class="edge">
<title>LinearOperator&#45;&gt;AbstractInvariantLebesgueSpace</title>
<path fill="none" stroke="black" d="M283.44,-452.57C242.35,-446.72 194.01,-436.81 180.02,-421.5 152.09,-390.92 152.53,-339.97 156.2,-308.27"/>
<polygon fill="black" stroke="black" points="159.68,-308.69 157.53,-298.32 152.74,-307.77 159.68,-308.69"/>
</g>
<!-- IntervalOperators -->
<g id="node24" class="node">
<title>IntervalOperators</title>
<path fill="#e6f3ff" stroke="#0066cc" d="M1497.52,-487C1497.52,-487 1372.52,-487 1372.52,-487 1366.52,-487 1360.52,-481 1360.52,-475 1360.52,-475 1360.52,-446 1360.52,-446 1360.52,-440 1366.52,-434 1372.52,-434 1372.52,-434 1497.52,-434 1497.52,-434 1503.52,-434 1509.52,-440 1509.52,-446 1509.52,-446 1509.52,-475 1509.52,-475 1509.52,-481 1503.52,-487 1497.52,-487"/>
<text text-anchor="middle" x="1435.02" y="-471.8" font-family="Times,serif" font-size="14.00">LaplacianOperator</text>
<text text-anchor="middle" x="1435.02" y="-456.8" font-family="Times,serif" font-size="14.00">GradientOperator</text>
<text text-anchor="middle" x="1435.02" y="-441.8" font-family="Times,serif" font-size="14.00">LaplacianInverse</text>
</g>
<!-- LinearOperator&#45;&gt;IntervalOperators -->
<g id="edge34" class="edge">
<title>LinearOperator&#45;&gt;IntervalOperators</title>
<path fill="none" stroke="black" d="M410.6,-467.26C598.2,-486.6 1147.26,-538.64 1323.02,-505 1338.94,-501.95 1355.47,-496.68 1370.79,-490.8"/>
<polygon fill="black" stroke="black" points="1372.16,-494.03 1380.16,-487.08 1369.57,-487.52 1372.16,-494.03"/>
</g>
<!-- HilbertSpaceDirectSum&#45;&gt;BlockLinearOperator -->
<g id="edge9" class="edge">
<title>HilbertSpaceDirectSum&#45;&gt;BlockLinearOperator</title>
<path fill="none" stroke="black" d="M642.23,-353.48C632.24,-340.17 618.16,-321.44 606.73,-306.22"/>
<polygon fill="black" stroke="black" points="609.5,-304.08 600.69,-298.19 603.9,-308.29 609.5,-304.08"/>
</g>
<!-- GaussianMeasure&#45;&gt;ForwardProblem -->
<g id="edge14" class="edge">
<title>GaussianMeasure&#45;&gt;ForwardProblem</title>
<path fill="none" stroke="black" d="M875.34,-353.39C890.26,-346.15 907.62,-337.44 923.02,-329 938.04,-320.77 954.25,-311.12 968.19,-302.58"/>
<polygon fill="black" stroke="black" points="970.32,-305.37 976.99,-297.14 966.64,-299.42 970.32,-305.37"/>
</g>
<!-- LinearBayesianInversion -->
<g id="node14" class="node">
<title>LinearBayesianInversion</title>
<path fill="#f0e8ff" stroke="#9467bd" d="M916.02,-124C916.02,-124 746.02,-124 746.02,-124 740.02,-124 734.02,-118 734.02,-112 734.02,-112 734.02,-100 734.02,-100 734.02,-94 740.02,-88 746.02,-88 746.02,-88 916.02,-88 916.02,-88 922.02,-88 928.02,-94 928.02,-100 928.02,-100 928.02,-112 928.02,-112 928.02,-118 922.02,-124 916.02,-124"/>
<text text-anchor="middle" x="831.02" y="-102.3" font-family="Times,serif" font-size="14.00">LinearBayesianInversion</text>
</g>
<!-- GaussianMeasure&#45;&gt;LinearBayesianInversion -->
<g id="edge18" class="edge">
<title>GaussianMeasure&#45;&gt;LinearBayesianInversion</title>
<path fill="none" stroke="black" d="M838.5,-353.21C837.14,-308.44 833.5,-188.43 831.85,-134.23"/>
<polygon fill="black" stroke="black" points="835.34,-133.9 831.54,-124.01 828.35,-134.11 835.34,-133.9"/>
</g>
<!-- GaussianMeasure&#45;&gt;AbstractInvariantLebesgueSpace -->
<g id="edge25" class="edge">
<title>GaussianMeasure&#45;&gt;AbstractInvariantLebesgueSpace</title>
<path fill="none" stroke="black" d="M805.63,-353.44C791.35,-347.01 774.25,-340.43 758.02,-337 685.16,-321.62 497.09,-336.76 423.02,-329 362.08,-322.62 294.08,-309.72 242.63,-298.77"/>
<polygon fill="black" stroke="black" points="243.08,-295.28 232.57,-296.6 241.61,-302.13 243.08,-295.28"/>
</g>
<!-- LinearLeastSquaresInversion -->
<g id="node15" class="node">
<title>LinearLeastSquaresInversion</title>
<path fill="#f0e8ff" stroke="#9467bd" d="M1161.52,-124C1161.52,-124 958.52,-124 958.52,-124 952.52,-124 946.52,-118 946.52,-112 946.52,-112 946.52,-100 946.52,-100 946.52,-94 952.52,-88 958.52,-88 958.52,-88 1161.52,-88 1161.52,-88 1167.52,-88 1173.52,-94 1173.52,-100 1173.52,-100 1173.52,-112 1173.52,-112 1173.52,-118 1167.52,-124 1161.52,-124"/>
<text text-anchor="middle" x="1060.02" y="-102.3" font-family="Times,serif" font-size="14.00">LinearLeastSquaresInversion</text>
</g>
<!-- LinearSolver&#45;&gt;LinearLeastSquaresInversion -->
<g id="edge21" class="edge">
<title>LinearSolver&#45;&gt;LinearLeastSquaresInversion</title>
<path fill="none" stroke="black" d="M517.27,-352.46C528.04,-346.47 540.71,-340.45 553.02,-337 607.06,-321.88 625.95,-347.2 679.02,-329 803.09,-286.45 807.46,-225.04 923.02,-163 948.01,-149.59 976.91,-137.33 1001.71,-127.73"/>
<polygon fill="black" stroke="black" points="1003.25,-130.89 1011.35,-124.05 1000.76,-124.35 1003.25,-130.89"/>
</g>
<!-- Inversion -->
<g id="node13" class="node">
<title>Inversion</title>
<path fill="#ffe8e8" stroke="#d62728" d="M1019.52,-216.5C1019.52,-216.5 960.52,-216.5 960.52,-216.5 954.52,-216.5 948.52,-210.5 948.52,-204.5 948.52,-204.5 948.52,-190.5 948.52,-190.5 948.52,-184.5 954.52,-178.5 960.52,-178.5 960.52,-178.5 1019.52,-178.5 1019.52,-178.5 1025.52,-178.5 1031.52,-184.5 1031.52,-190.5 1031.52,-190.5 1031.52,-204.5 1031.52,-204.5 1031.52,-210.5 1025.52,-216.5 1019.52,-216.5"/>
<text text-anchor="middle" x="990.02" y="-201.3" font-family="Times,serif" font-size="14.00">Inversion</text>
<text text-anchor="middle" x="990.02" y="-186.3" font-family="Times,serif" font-size="14.00">(ABC)</text>
</g>
<!-- ForwardProblem&#45;&gt;Inversion -->
<g id="edge15" class="edge">
<title>ForwardProblem&#45;&gt;Inversion</title>
<path fill="none" stroke="black" d="M1000.99,-260.75C999.23,-250.75 996.97,-237.92 994.96,-226.5"/>
<polygon fill="black" stroke="black" points="998.38,-225.79 993.2,-216.54 991.49,-227 998.38,-225.79"/>
</g>
<!-- ForwardProblem&#45;&gt;LinearBayesianInversion -->
<g id="edge17" class="edge">
<title>ForwardProblem&#45;&gt;LinearBayesianInversion</title>
<path fill="none" stroke="black" d="M982.43,-260.86C969.75,-250.54 953.61,-236.93 940.02,-224 908.23,-193.73 874.13,-156.22 852.7,-131.96"/>
<polygon fill="black" stroke="black" points="855.17,-129.47 845.94,-124.27 849.91,-134.09 855.17,-129.47"/>
</g>
<!-- ForwardProblem&#45;&gt;LinearLeastSquaresInversion -->
<g id="edge20" class="edge">
<title>ForwardProblem&#45;&gt;LinearLeastSquaresInversion</title>
<path fill="none" stroke="black" d="M1018.84,-260.65C1026.66,-250.58 1035.7,-237.29 1041.02,-224 1052.7,-194.84 1057.21,-158.86 1058.94,-134.56"/>
<polygon fill="black" stroke="black" points="1062.45,-134.48 1059.56,-124.29 1055.47,-134.06 1062.45,-134.48"/>
</g>
<!-- Inversion&#45;&gt;LinearBayesianInversion -->
<g id="edge16" class="edge">
<title>Inversion&#45;&gt;LinearBayesianInversion</title>
<path fill="none" stroke="black" d="M957.85,-178.39C932.49,-164.12 897.04,-144.16 870.06,-128.98"/>
<polygon fill="black" stroke="black" points="871.7,-125.88 861.27,-124.02 868.26,-131.98 871.7,-125.88"/>
</g>
<!-- Inversion&#45;&gt;LinearLeastSquaresInversion -->
<g id="edge19" class="edge">
<title>Inversion&#45;&gt;LinearLeastSquaresInversion</title>
<path fill="none" stroke="black" d="M1004.19,-178.39C1014.54,-165.15 1028.72,-147.03 1040.2,-132.35"/>
<polygon fill="black" stroke="black" points="1043.19,-134.21 1046.59,-124.17 1037.68,-129.89 1043.19,-134.21"/>
</g>
<!-- LinearBayesianInference -->
<g id="node16" class="node">
<title>LinearBayesianInference</title>
<path fill="#f0e8ff" stroke="#9467bd" d="M916.02,-52C916.02,-52 746.02,-52 746.02,-52 740.02,-52 734.02,-46 734.02,-40 734.02,-40 734.02,-28 734.02,-28 734.02,-22 740.02,-16 746.02,-16 746.02,-16 916.02,-16 916.02,-16 922.02,-16 928.02,-22 928.02,-28 928.02,-28 928.02,-40 928.02,-40 928.02,-46 922.02,-52 916.02,-52"/>
<text text-anchor="middle" x="831.02" y="-30.3" font-family="Times,serif" font-size="14.00">LinearBayesianInference</text>
</g>
<!-- LinearBayesianInversion&#45;&gt;LinearBayesianInference -->
<g id="edge22" class="edge">
<title>LinearBayesianInversion&#45;&gt;LinearBayesianInference</title>
<path fill="none" stroke="black" d="M831.02,-87.7C831.02,-79.98 831.02,-70.71 831.02,-62.11"/>
<polygon fill="black" stroke="black" points="834.52,-62.1 831.02,-52.1 827.52,-62.1 834.52,-62.1"/>
</g>
<!-- CircleSpaces -->
<g id="node18" class="node">
<title>CircleSpaces</title>
<path fill="#ffe0b3" stroke="#8c564b" d="M214.52,-224C214.52,-224 107.52,-224 107.52,-224 101.52,-224 95.52,-218 95.52,-212 95.52,-212 95.52,-183 95.52,-183 95.52,-177 101.52,-171 107.52,-171 107.52,-171 214.52,-171 214.52,-171 220.52,-171 226.52,-177 226.52,-183 226.52,-183 226.52,-212 226.52,-212 226.52,-218 220.52,-224 214.52,-224"/>
<text text-anchor="middle" x="161.02" y="-208.8" font-family="Times,serif" font-size="14.00">Circle.Lebesgue</text>
<text text-anchor="middle" x="161.02" y="-193.8" font-family="Times,serif" font-size="14.00">Circle.Sobolev</text>
<text text-anchor="middle" x="161.02" y="-178.8" font-family="Times,serif" font-size="14.00">CircleHelper</text>
</g>
<!-- AbstractInvariantLebesgueSpace&#45;&gt;CircleSpaces -->
<g id="edge26" class="edge">
<title>AbstractInvariantLebesgueSpace&#45;&gt;CircleSpaces</title>
<path fill="none" stroke="black" d="M161.02,-259.96C161.02,-252.32 161.02,-243.14 161.02,-234.23"/>
<polygon fill="black" stroke="black" points="164.52,-234 161.02,-224 157.52,-234 164.52,-234"/>
</g>
<!-- Function -->
<g id="node20" class="node">
<title>Function</title>
<path fill="#e6f3ff" stroke="#0066cc" d="M1036.52,-479.5C1036.52,-479.5 977.52,-479.5 977.52,-479.5 971.52,-479.5 965.52,-473.5 965.52,-467.5 965.52,-467.5 965.52,-453.5 965.52,-453.5 965.52,-447.5 971.52,-441.5 977.52,-441.5 977.52,-441.5 1036.52,-441.5 1036.52,-441.5 1042.52,-441.5 1048.52,-447.5 1048.52,-453.5 1048.52,-453.5 1048.52,-467.5 1048.52,-467.5 1048.52,-473.5 1042.52,-479.5 1036.52,-479.5"/>
<text text-anchor="middle" x="1007.02" y="-464.3" font-family="Times,serif" font-size="14.00">Function</text>
<text text-anchor="middle" x="1007.02" y="-449.3" font-family="Times,serif" font-size="14.00">(interval)</text>
</g>
<!-- IntervalDomain&#45;&gt;Function -->
<g id="edge30" class="edge">
<title>IntervalDomain&#45;&gt;Function</title>
<path fill="none" stroke="black" d="M1024.25,-523.75C1021.48,-513.75 1017.93,-500.92 1014.77,-489.5"/>
<polygon fill="black" stroke="black" points="1018.06,-488.25 1012.02,-479.54 1011.31,-490.12 1018.06,-488.25"/>
</g>
<!-- FunctionProviders -->
<g id="node25" class="node">
<title>FunctionProviders</title>
<path fill="#e6f3ff" stroke="#0066cc" d="M1141.52,-398C1141.52,-398 1016.52,-398 1016.52,-398 1010.52,-398 1004.52,-392 1004.52,-386 1004.52,-386 1004.52,-357 1004.52,-357 1004.52,-351 1010.52,-345 1016.52,-345 1016.52,-345 1141.52,-345 1141.52,-345 1147.52,-345 1153.52,-351 1153.52,-357 1153.52,-357 1153.52,-386 1153.52,-386 1153.52,-392 1147.52,-398 1141.52,-398"/>
<text text-anchor="middle" x="1079.02" y="-382.8" font-family="Times,serif" font-size="14.00">FunctionProviders</text>
<text text-anchor="middle" x="1079.02" y="-367.8" font-family="Times,serif" font-size="14.00">(Fourier, Splines,</text>
<text text-anchor="middle" x="1079.02" y="-352.8" font-family="Times,serif" font-size="14.00">Bumps, etc.)</text>
</g>
<!-- Function&#45;&gt;FunctionProviders -->
<g id="edge32" class="edge">
<title>Function&#45;&gt;FunctionProviders</title>
<path fill="none" stroke="black" d="M1021.94,-441.47C1030.46,-431.18 1041.4,-417.96 1051.43,-405.85"/>
<polygon fill="black" stroke="black" points="1054.17,-408.03 1057.85,-398.09 1048.77,-403.56 1054.17,-408.03"/>
</g>
<!-- BoundaryConditions -->
<g id="node21" class="node">
<title>BoundaryConditions</title>
<path fill="#e6f3ff" stroke="#0066cc" d="M1510.02,-560C1510.02,-560 1372.02,-560 1372.02,-560 1366.02,-560 1360.02,-554 1360.02,-548 1360.02,-548 1360.02,-536 1360.02,-536 1360.02,-530 1366.02,-524 1372.02,-524 1372.02,-524 1510.02,-524 1510.02,-524 1516.02,-524 1522.02,-530 1522.02,-536 1522.02,-536 1522.02,-548 1522.02,-548 1522.02,-554 1516.02,-560 1510.02,-560"/>
<text text-anchor="middle" x="1441.02" y="-538.3" font-family="Times,serif" font-size="14.00">BoundaryConditions</text>
</g>
<!-- BoundaryConditions&#45;&gt;IntervalOperators -->
<g id="edge36" class="edge">
<title>BoundaryConditions&#45;&gt;IntervalOperators</title>
<path fill="none" stroke="black" d="M1439.72,-523.75C1439.14,-515.99 1438.42,-506.51 1437.73,-497.32"/>
<polygon fill="black" stroke="black" points="1441.21,-496.88 1436.96,-487.18 1434.23,-497.41 1441.21,-496.88"/>
</g>
<!-- FEMSolvers -->
<g id="node27" class="node">
<title>FEMSolvers</title>
<path fill="#e6f3ff" stroke="#0066cc" d="M1406.52,-389.5C1406.52,-389.5 1277.52,-389.5 1277.52,-389.5 1271.52,-389.5 1265.52,-383.5 1265.52,-377.5 1265.52,-377.5 1265.52,-365.5 1265.52,-365.5 1265.52,-359.5 1271.52,-353.5 1277.52,-353.5 1277.52,-353.5 1406.52,-353.5 1406.52,-353.5 1412.52,-353.5 1418.52,-359.5 1418.52,-365.5 1418.52,-365.5 1418.52,-377.5 1418.52,-377.5 1418.52,-383.5 1412.52,-389.5 1406.52,-389.5"/>
<text text-anchor="middle" x="1342.02" y="-367.8" font-family="Times,serif" font-size="14.00">GeneralFEMSolver</text>
</g>
<!-- BoundaryConditions&#45;&gt;FEMSolvers -->
<g id="edge38" class="edge">
<title>BoundaryConditions&#45;&gt;FEMSolvers</title>
<path fill="none" stroke="black" d="M1480.4,-523.76C1495.32,-515.05 1510.69,-502.9 1519.02,-487 1529.96,-466.13 1532.68,-453.2 1519.02,-434 1498.26,-404.8 1462.61,-389.35 1428.71,-381.21"/>
<polygon fill="black" stroke="black" points="1429.26,-377.75 1418.74,-379.01 1427.75,-384.58 1429.26,-377.75"/>
</g>
<!-- L2Space&#45;&gt;ForwardProblem -->
<g id="edge40" class="edge">
<title>L2Space&#45;&gt;ForwardProblem</title>
<path fill="none" stroke="black" d="M1111.38,-525.94C1108.23,-524.91 1105.08,-523.92 1102.02,-523 1038.42,-503.93 997.93,-539.3 957.02,-487 935.15,-459.03 972.85,-355.86 992.82,-306.56"/>
<polygon fill="black" stroke="black" points="996.11,-307.76 996.67,-297.18 989.63,-305.1 996.11,-307.76"/>
</g>
<!-- L2Space&#45;&gt;Function -->
<g id="edge31" class="edge">
<title>L2Space&#45;&gt;Function</title>
<path fill="none" stroke="black" d="M1119.9,-522.96C1098.97,-511.57 1071.74,-496.74 1049.26,-484.5"/>
<polygon fill="black" stroke="black" points="1050.73,-481.31 1040.28,-479.61 1047.38,-487.46 1050.73,-481.31"/>
</g>
<!-- SobolevSpace -->
<g id="node23" class="node">
<title>SobolevSpace</title>
<path fill="#e6f3ff" stroke="#0066cc" d="M1310.52,-479.5C1310.52,-479.5 1251.52,-479.5 1251.52,-479.5 1245.52,-479.5 1239.52,-473.5 1239.52,-467.5 1239.52,-467.5 1239.52,-453.5 1239.52,-453.5 1239.52,-447.5 1245.52,-441.5 1251.52,-441.5 1251.52,-441.5 1310.52,-441.5 1310.52,-441.5 1316.52,-441.5 1322.52,-447.5 1322.52,-453.5 1322.52,-453.5 1322.52,-467.5 1322.52,-467.5 1322.52,-473.5 1316.52,-479.5 1310.52,-479.5"/>
<text text-anchor="middle" x="1281.02" y="-464.3" font-family="Times,serif" font-size="14.00">Sobolev</text>
<text text-anchor="middle" x="1281.02" y="-449.3" font-family="Times,serif" font-size="14.00">(interval)</text>
</g>
<!-- L2Space&#45;&gt;SobolevSpace -->
<g id="edge28" class="edge">
<title>L2Space&#45;&gt;SobolevSpace</title>
<path fill="none" stroke="black" d="M1182.07,-522.96C1200.11,-511.76 1223.49,-497.23 1243,-485.12"/>
<polygon fill="black" stroke="black" points="1245,-487.99 1251.65,-479.74 1241.31,-482.05 1245,-487.99"/>
</g>
<!-- L2Space&#45;&gt;IntervalOperators -->
<g id="edge35" class="edge">
<title>L2Space&#45;&gt;IntervalOperators</title>
<path fill="none" stroke="black" d="M1194.69,-529.54C1234,-518.69 1294.56,-501.9 1347.02,-487 1348.1,-486.7 1349.17,-486.39 1350.26,-486.08"/>
<polygon fill="black" stroke="black" points="1351.49,-489.37 1360.15,-483.26 1349.57,-482.64 1351.49,-489.37"/>
</g>
<!-- BasisProviders -->
<g id="node26" class="node">
<title>BasisProviders</title>
<path fill="#e6f3ff" stroke="#0066cc" d="M1209.52,-479.5C1209.52,-479.5 1078.52,-479.5 1078.52,-479.5 1072.52,-479.5 1066.52,-473.5 1066.52,-467.5 1066.52,-467.5 1066.52,-453.5 1066.52,-453.5 1066.52,-447.5 1072.52,-441.5 1078.52,-441.5 1078.52,-441.5 1209.52,-441.5 1209.52,-441.5 1215.52,-441.5 1221.52,-447.5 1221.52,-453.5 1221.52,-453.5 1221.52,-467.5 1221.52,-467.5 1221.52,-473.5 1215.52,-479.5 1209.52,-479.5"/>
<text text-anchor="middle" x="1144.02" y="-464.3" font-family="Times,serif" font-size="14.00">BasisProviders</text>
<text text-anchor="middle" x="1144.02" y="-449.3" font-family="Times,serif" font-size="14.00">SpectrumProviders</text>
</g>
<!-- L2Space&#45;&gt;BasisProviders -->
<g id="edge33" class="edge">
<title>L2Space&#45;&gt;BasisProviders</title>
<path fill="none" stroke="black" d="M1150.98,-522.96C1149.87,-513.17 1148.48,-500.85 1147.23,-489.81"/>
<polygon fill="black" stroke="black" points="1150.69,-489.29 1146.09,-479.74 1143.74,-490.07 1150.69,-489.29"/>
</g>
<!-- L2Space&#45;&gt;FEMSolvers -->
<g id="edge39" class="edge">
<title>L2Space&#45;&gt;FEMSolvers</title>
<path fill="none" stroke="black" d="M1194.68,-540.99C1236.38,-538.53 1298.96,-527.68 1332.02,-487 1351.74,-462.75 1351.07,-425.31 1347.58,-399.9"/>
<polygon fill="black" stroke="black" points="1351.01,-399.14 1345.97,-389.82 1344.1,-400.25 1351.01,-399.14"/>
</g>
<!-- SobolevSpace&#45;&gt;GaussianMeasure -->
<g id="edge42" class="edge">
<title>SobolevSpace&#45;&gt;GaussianMeasure</title>
<path fill="none" stroke="black" d="M1250.64,-441.44C1244.35,-438.44 1237.62,-435.74 1231.02,-434 1111.45,-402.41 1073.58,-449.15 953.02,-421.5 927.6,-415.67 900.72,-404.39 879.46,-394.13"/>
<polygon fill="black" stroke="black" points="880.92,-390.95 870.41,-389.66 877.82,-397.22 880.92,-390.95"/>
</g>
<!-- IntervalOperators&#45;&gt;GaussianMeasure -->
<g id="edge43" class="edge">
<title>IntervalOperators&#45;&gt;GaussianMeasure</title>
<path fill="none" stroke="black" d="M1360.28,-439.06C1350.83,-437.04 1341.24,-435.28 1332.02,-434 1248.56,-422.42 1035.27,-439.85 953.02,-421.5 927.38,-415.78 900.3,-404.39 878.97,-394.03"/>
<polygon fill="black" stroke="black" points="880.41,-390.84 869.9,-389.52 877.3,-397.11 880.41,-390.84"/>
</g>
<!-- IntervalOperators&#45;&gt;ForwardProblem -->
<g id="edge41" class="edge">
<title>IntervalOperators&#45;&gt;ForwardProblem</title>
<path fill="none" stroke="black" d="M1442.05,-433.84C1447.91,-406.22 1451.91,-362.79 1428.02,-337 1382.69,-288.06 1192.2,-279.73 1082.59,-279.13"/>
<polygon fill="black" stroke="black" points="1082.58,-275.63 1072.57,-279.09 1082.55,-282.63 1082.58,-275.63"/>
</g>
<!-- IntervalOperators&#45;&gt;FEMSolvers -->
<g id="edge37" class="edge">
<title>IntervalOperators&#45;&gt;FEMSolvers</title>
<path fill="none" stroke="black" d="M1407.62,-433.87C1395.02,-422.08 1380.16,-408.17 1367.77,-396.58"/>
<polygon fill="black" stroke="black" points="1370.11,-393.98 1360.41,-389.7 1365.32,-399.09 1370.11,-393.98"/>
</g>
</g>
</svg>
